<svg
   xmlns:dc="http://purl.org/dc/elements/1.1/"
   xmlns:cc="http://creativecommons.org/ns#"
   xmlns:rdf="http://www.w3.org/1999/02/22-rdf-syntax-ns#"
   xmlns:svg="http://www.w3.org/2000/svg"
   xmlns="http://www.w3.org/2000/svg"
   viewBox="0 0 3178.6667 2245.3333"
   height="2245.3333"
   width="3178.6667"
   xml:space="preserve"
   id="svg2"
   version="1.1"><metadata
     id="metadata8"><rdf:RDF><cc:Work
         rdf:about=""><dc:format>image/svg+xml</dc:format><dc:type
           rdf:resource="http://purl.org/dc/dcmitype/StillImage" /></cc:Work></rdf:RDF></metadata><defs
     id="defs6"><clipPath
       id="clipPath18"
       clipPathUnits="userSpaceOnUse"><path
         id="path16"
         d="M 3279,0 H 16350 V 13228 H 3279 V 0" /></clipPath></defs><g
     transform="matrix(0.16,0,0,-0.16,18.666666,2181.3333)"
     id="g10"><g
       id="g12"><g
         clip-path="url(#clipPath18)"
         id="g14"><path
           id="path20"
           style="fill:none;stroke:#000000;stroke-width:6;stroke-linecap:round;stroke-linejoin:round;stroke-miterlimit:10;stroke-dasharray:none;stroke-opacity:1"
           d="m 7085,1086 -53,249 -87,218 -149,184 -153,135 -275,101 -302,13 -258,-70 -210,-131 -210,-153 h -126 v 3178 l 459,359 153,2872 h 1197 l 145,-2177 581,306 105,2667 h 1185 l 210,-3449 2011,966 V 4391 l 3034,1530 V 2240 l 179,-140 197,-223 109,-171 136,13 209,-113 97,-175 30,-192 -43,-119 -31,-34 H 4588 l 75,187 135,162 249,123 215,74" /><path
           id="path22"
           style="fill:none;stroke:#000000;stroke-width:6;stroke-linecap:round;stroke-linejoin:round;stroke-miterlimit:10;stroke-dasharray:none;stroke-opacity:1"
           d="m 11811,1086 83,257 174,241 245,197 512,43 262,158 236,188 236,105 263,30 319,-22 201,-43" /><path
           id="path24"
           style="fill:none;stroke:#000000;stroke-width:6;stroke-linecap:round;stroke-linejoin:round;stroke-miterlimit:10;stroke-dasharray:none;stroke-opacity:1"
           d="m 5262,4356 3077,1587 v 450 l -542,-223" /><path
           id="path26"
           style="fill:none;stroke:#000000;stroke-width:6;stroke-linecap:round;stroke-linejoin:round;stroke-miterlimit:10;stroke-dasharray:none;stroke-opacity:1"
           d="M 7216,5864 5721,5169" /><path
           id="path28"
           style="fill:none;stroke:#000000;stroke-width:6;stroke-linecap:round;stroke-linejoin:round;stroke-miterlimit:10;stroke-dasharray:none;stroke-opacity:1"
           d="M 8339,5943 V 4382 l 2969,1543" /><path
           id="path30"
           style="fill:none;stroke:#000000;stroke-width:6;stroke-linecap:round;stroke-linejoin:round;stroke-miterlimit:10;stroke-dasharray:none;stroke-opacity:1"
           d="M 9297,5388 8339,4850" /><path
           id="path32"
           style="fill:none;stroke:#000000;stroke-width:6;stroke-linecap:round;stroke-linejoin:round;stroke-miterlimit:10;stroke-dasharray:none;stroke-opacity:1"
           d="m 6525,2721 v 913 H 8073 V 2721 H 6525" /><path
           id="path34"
           style="fill:none;stroke:#000000;stroke-width:6;stroke-linecap:round;stroke-linejoin:round;stroke-miterlimit:10;stroke-dasharray:none;stroke-opacity:1"
           d="M 7299,3634 V 2721" /><path
           id="path36"
           style="fill:none;stroke:#000000;stroke-width:6;stroke-linecap:round;stroke-linejoin:round;stroke-miterlimit:10;stroke-dasharray:none;stroke-opacity:1"
           d="m 9048,2721 v 913 h 1547 V 2721 H 9048" /><path
           id="path38"
           style="fill:none;stroke:#000000;stroke-width:6;stroke-linecap:round;stroke-linejoin:round;stroke-miterlimit:10;stroke-dasharray:none;stroke-opacity:1"
           d="M 9821,3634 V 2721" /><path
           id="path40"
           style="fill:none;stroke:#000000;stroke-width:6;stroke-linecap:round;stroke-linejoin:round;stroke-miterlimit:10;stroke-dasharray:none;stroke-opacity:1"
           d="m 11579,2721 v 913 h 1552 v -913 h -1552" /><path
           id="path42"
           style="fill:none;stroke:#000000;stroke-width:6;stroke-linecap:round;stroke-linejoin:round;stroke-miterlimit:10;stroke-dasharray:none;stroke-opacity:1"
           d="M 12357,3634 V 2721" /><path
           id="path44"
           style="fill:none;stroke:#000000;stroke-width:6;stroke-linecap:round;stroke-linejoin:round;stroke-miterlimit:10;stroke-dasharray:none;stroke-opacity:1"
           d="m 6871,8865.5 c 0,184.7393 -149.7607,334.5 -334.5,334.5 -184.7393,0 -334.5,-149.7607 -334.5,-334.5 0,-184.7393 149.7607,-334.5 334.5,-334.5 184.7393,0 334.5,149.7607 334.5,334.5" /><path
           id="path46"
           style="fill:none;stroke:#000000;stroke-width:6;stroke-linecap:round;stroke-linejoin:round;stroke-miterlimit:10;stroke-dasharray:none;stroke-opacity:1"
           d="m 7037,9755 135,-79 284,-30 389,44 232,166 52,201 -26,175 -109,157 -214,118 h -263 l -135,-135 -92,-127 -197,-35 -91,-92 -31,-175 35,-170 31,-18" /><path
           id="path48"
           style="fill:none;stroke:#000000;stroke-width:6;stroke-linecap:round;stroke-linejoin:round;stroke-miterlimit:10;stroke-dasharray:none;stroke-opacity:1"
           d="m 8995,9943 -100,197 -22,271 83,372 188,188 166,83 245,26 h 166 l 144,232 162,166 275,201 258,122 232,48 h 284 l 241,-113 231,-158 188,-231 110,-171 126,-96 215,-101 174,-201 53,-253 -18,-180 -78,-183 -149,-166 -219,-101 -393,13 -310,-92 -276,-78 -249,-92 -171,-118 -126,-61 -114,-40 -136,9 -249,61 -140,57 -105,74 -214,22 -148,-9 -127,31 -92,114 -61,131 -44,22 v 4" /></g></g></g></svg>